<svg width="291" height="291" viewBox="0 0 291 291" fill="none" xmlns="http://www.w3.org/2000/svg">
<g filter="url(#filter0_di_2_45)">
<path fill-rule="evenodd" clip-rule="evenodd" d="M4 223.255L63.7479 0.299988L286.7 60.0525L226.943 283.004L4 223.255ZM119.604 98.43C124.709 79.3776 144.292 68.0711 163.345 73.1762C182.397 78.2813 193.703 97.8647 188.598 116.917L183.977 134.166L209.85 141.098L175.981 209.597C172.208 217.228 163.574 221.134 155.352 218.931L97.3892 203.4C89.1671 201.197 83.643 193.497 84.1909 185.002L89.1088 108.746L114.982 115.679L119.604 98.43ZM171.35 112.295L166.728 129.544L132.231 120.3L136.852 103.052C139.405 93.5256 149.197 87.8723 158.723 90.4249C168.249 92.9774 173.902 102.769 171.35 112.295Z" fill="url(#paint0_linear_2_45)"/>
</g>
<defs>
<filter id="filter0_di_2_45" x="0" y="0.299988" width="290.7" height="290.704" filterUnits="userSpaceOnUse" color-interpolation-filters="sRGB">
<feFlood flood-opacity="0" result="BackgroundImageFix"/>
<feColorMatrix in="SourceAlpha" type="matrix" values="0 0 0 0 0 0 0 0 0 0 0 0 0 0 0 0 0 0 127 0" result="hardAlpha"/>
<feOffset dy="4"/>
<feGaussianBlur stdDeviation="2"/>
<feComposite in2="hardAlpha" operator="out"/>
<feColorMatrix type="matrix" values="0 0 0 0 0 0 0 0 0 0 0 0 0 0 0 0 0 0 0.25 0"/>
<feBlend mode="normal" in2="BackgroundImageFix" result="effect1_dropShadow_2_45"/>
<feBlend mode="normal" in="SourceGraphic" in2="effect1_dropShadow_2_45" result="shape"/>
<feColorMatrix in="SourceAlpha" type="matrix" values="0 0 0 0 0 0 0 0 0 0 0 0 0 0 0 0 0 0 127 0" result="hardAlpha"/>
<feOffset dx="2" dy="4"/>
<feGaussianBlur stdDeviation="2"/>
<feComposite in2="hardAlpha" operator="arithmetic" k2="-1" k3="1"/>
<feColorMatrix type="matrix" values="0 0 0 0 1 0 0 0 0 1 0 0 0 0 1 0 0 0 0.5 0"/>
<feBlend mode="normal" in2="shape" result="effect2_innerShadow_2_45"/>
</filter>
<linearGradient id="paint0_linear_2_45" x1="215.671" y1="283.37" x2="127.895" y2="-1.45904" gradientUnits="userSpaceOnUse">
<stop offset="0.115" stop-color="#8FA0B2"/>
<stop offset="0.31" stop-color="#9BA9B6"/>
<stop offset="0.65" stop-color="#D9DFE5"/>
<stop offset="0.845" stop-color="white"/>
</linearGradient>
</defs>
</svg>
