<svg width="400" height="400" viewBox="0 0 400 400" fill="none" xmlns="http://www.w3.org/2000/svg">
<rect width="400" height="400" fill="black"/>
<g filter="url(#filter0_di_1_41)">
<path fill-rule="evenodd" clip-rule="evenodd" d="M78.5 270.142L129.857 78.5L321.5 129.861L270.135 321.5L78.5 270.142ZM177.869 162.848C182.257 146.472 199.091 136.753 215.468 141.141C231.844 145.529 241.563 162.362 237.175 178.739L233.202 193.565L255.442 199.524L226.329 258.402C223.086 264.961 215.664 268.319 208.597 266.425L158.774 253.076C151.707 251.182 146.959 244.563 147.43 237.262L151.657 171.715L173.897 177.674L177.869 162.848ZM222.348 174.766L218.376 189.592L188.723 181.647L192.696 166.821C194.89 158.633 203.306 153.773 211.495 155.967C219.683 158.161 224.543 166.578 222.348 174.766Z" fill="url(#paint0_linear_1_41)"/>
</g>
<defs>
<filter id="filter0_di_1_41" x="74.5" y="78.5" width="251" height="251" filterUnits="userSpaceOnUse" color-interpolation-filters="sRGB">
<feFlood flood-opacity="0" result="BackgroundImageFix"/>
<feColorMatrix in="SourceAlpha" type="matrix" values="0 0 0 0 0 0 0 0 0 0 0 0 0 0 0 0 0 0 127 0" result="hardAlpha"/>
<feOffset dy="4"/>
<feGaussianBlur stdDeviation="2"/>
<feComposite in2="hardAlpha" operator="out"/>
<feColorMatrix type="matrix" values="0 0 0 0 0 0 0 0 0 0 0 0 0 0 0 0 0 0 0.25 0"/>
<feBlend mode="normal" in2="BackgroundImageFix" result="effect1_dropShadow_1_41"/>
<feBlend mode="normal" in="SourceGraphic" in2="effect1_dropShadow_1_41" result="shape"/>
<feColorMatrix in="SourceAlpha" type="matrix" values="0 0 0 0 0 0 0 0 0 0 0 0 0 0 0 0 0 0 127 0" result="hardAlpha"/>
<feOffset dx="2" dy="4"/>
<feGaussianBlur stdDeviation="2"/>
<feComposite in2="hardAlpha" operator="arithmetic" k2="-1" k3="1"/>
<feColorMatrix type="matrix" values="0 0 0 0 1 0 0 0 0 1 0 0 0 0 1 0 0 0 0.5 0"/>
<feBlend mode="normal" in2="shape" result="effect2_innerShadow_1_41"/>
</filter>
<linearGradient id="paint0_linear_1_41" x1="260.446" y1="321.814" x2="184.998" y2="76.9874" gradientUnits="userSpaceOnUse">
<stop offset="0.115" stop-color="#8FA0B2"/>
<stop offset="0.31" stop-color="#9BA9B6"/>
<stop offset="0.65" stop-color="#D9DFE5"/>
<stop offset="0.845" stop-color="white"/>
</linearGradient>
</defs>
</svg>
